<svg width="150" height="150" viewBox="0 0 150 150" fill="none" xmlns="http://www.w3.org/2000/svg">
<g clip-path="url(#clip0_26_188)">
<path d="M107.909 44.6402C107.709 44.1092 107.213 43.7601 106.66 43.7601H42.3401C41.7873 43.7601 41.2913 44.1092 41.0911 44.6402C40.8909 45.1698 41.0276 45.7735 41.4346 46.1576L73.16 76.1074V104.48H58.42V107.24H73.16H75.84H89.24V104.48H75.84V76.1074L107.565 46.1576C107.972 45.7735 108.109 45.1698 107.909 44.6402ZM74.5 73.6281L57.4794 57.56H74.96L80.2526 63.0099C80.5143 63.2795 80.8572 63.4142 81.2 63.4142C81.5429 63.4142 81.8857 63.2795 82.1474 63.0099L87.44 57.56H91.5208L74.5 73.6281ZM77.4097 56.18L81.2 52.2772L84.9903 56.18L81.2 60.0828L77.4097 56.18ZM94.4443 54.8H87.44L82.1474 49.3501C81.624 48.811 80.776 48.811 80.2526 49.3501L74.96 54.8H54.5557L45.7849 46.52H103.215L94.4443 54.8Z" fill="#E3E3E3"/>
<path d="M33.9089 118.64C33.7087 118.109 33.2127 117.76 32.6598 117.76H-31.6599C-32.2128 117.76 -32.7087 118.109 -32.9089 118.64C-33.1092 119.17 -32.9724 119.774 -32.5654 120.158L-0.840025 150.107V178.48H-15.58V181.24H-0.840025H1.83997H15.24V178.48H1.83997V150.107L33.5654 120.158C33.9724 119.774 34.1091 119.17 33.9089 118.64ZM0.499976 147.628L-16.5206 131.56H0.959949L6.25255 137.01C6.51427 137.279 6.85713 137.414 7.19998 137.414C7.54283 137.414 7.88568 137.279 8.1474 137.01L13.44 131.56H17.5207L0.499976 147.628ZM3.40963 130.18L7.19998 126.277L10.9903 130.18L7.19998 134.083L3.40963 130.18ZM20.4443 128.8H13.44L8.1474 123.35C7.62396 122.811 6.77599 122.811 6.25255 123.35L0.959949 128.8H-19.4443L-28.2152 120.52H29.215L20.4443 128.8Z" fill="#E3E3E3"/>
<path d="M183.909 118.64C183.709 118.109 183.213 117.76 182.66 117.76H118.34C117.787 117.76 117.291 118.109 117.091 118.64C116.891 119.17 117.028 119.774 117.435 120.158L149.16 150.107V178.48H134.42V181.24H149.16H151.84H165.24V178.48H151.84V150.107L183.565 120.158C183.972 119.774 184.109 119.17 183.909 118.64ZM150.5 147.628L133.479 131.56H150.96L156.253 137.01C156.514 137.279 156.857 137.414 157.2 137.414C157.543 137.414 157.886 137.279 158.147 137.01L163.44 131.56H167.521L150.5 147.628ZM153.41 130.18L157.2 126.277L160.99 130.18L157.2 134.083L153.41 130.18ZM170.444 128.8H163.44L158.147 123.35C157.624 122.811 156.776 122.811 156.253 123.35L150.96 128.8H130.556L121.785 120.52H179.215L170.444 128.8Z" fill="#E3E3E3"/>
<path d="M33.9089 -31.12C33.7087 -31.651 33.2127 -32 32.6598 -32H-31.6599C-32.2128 -32 -32.7087 -31.651 -32.9089 -31.12C-33.1092 -30.5904 -32.9724 -29.9866 -32.5654 -29.6025L-0.840025 0.347252V28.7197H-15.58V31.4797H-0.840025H1.83997H15.24V28.7197H1.83997V0.347252L33.5654 -29.6025C33.9724 -29.9866 34.1091 -30.5904 33.9089 -31.12ZM0.499976 -2.13203L-16.5206 -18.2001H0.959949L6.25255 -12.7502C6.51427 -12.4807 6.85713 -12.3459 7.19998 -12.3459C7.54283 -12.3459 7.88568 -12.4807 8.1474 -12.7502L13.44 -18.2001H17.5207L0.499976 -2.13203ZM3.40963 -19.5801L7.19998 -23.4829L10.9903 -19.5801L7.19998 -15.6773L3.40963 -19.5801ZM20.4443 -20.9601H13.44L8.1474 -26.4101C7.62396 -26.9491 6.77599 -26.9491 6.25255 -26.4101L0.959949 -20.9601H-19.4443L-28.2152 -29.2401H29.215L20.4443 -20.9601Z" fill="#E3E3E3"/>
<path d="M183.909 -31.12C183.709 -31.651 183.213 -32 182.66 -32H118.34C117.787 -32 117.291 -31.651 117.091 -31.12C116.891 -30.5904 117.028 -29.9866 117.435 -29.6025L149.16 0.347252V28.7197H134.42V31.4797H149.16H151.84H165.24V28.7197H151.84V0.347252L183.565 -29.6025C183.972 -29.9866 184.109 -30.5904 183.909 -31.12ZM150.5 -2.13203L133.479 -18.2001H150.96L156.253 -12.7502C156.514 -12.4807 156.857 -12.3459 157.2 -12.3459C157.543 -12.3459 157.886 -12.4807 158.147 -12.7502L163.44 -18.2001H167.521L150.5 -2.13203ZM153.41 -19.5801L157.2 -23.4829L160.99 -19.5801L157.2 -15.6773L153.41 -19.5801ZM170.444 -20.9601H163.44L158.147 -26.4101C157.624 -26.9491 156.776 -26.9491 156.253 -26.4101L150.96 -20.9601H130.556L121.785 -29.2401H179.215L170.444 -20.9601Z" fill="#E3E3E3"/>
</g>
<defs>
<clipPath id="clip0_26_188">
<rect width="150" height="150" fill="white"/>
</clipPath>
</defs>
</svg>
