<svg width="36" height="41" viewBox="0 0 36 41" fill="none" xmlns="http://www.w3.org/2000/svg">
<path d="M11.25 14.0938V11.5312C11.25 9.4924 11.9612 7.53705 13.227 6.09537C14.4929 4.65368 16.2098 3.84375 18 3.84375V3.84375C19.7902 3.84375 21.5071 4.65368 22.773 6.09537C24.0388 7.53705 24.75 9.4924 24.75 11.5312V14.0938M5.625 14.0938C5.32663 14.0938 5.04048 14.2287 4.82951 14.469C4.61853 14.7093 4.5 15.0352 4.5 15.375V32.6719C4.5 35.0934 6.31125 37.1562 8.4375 37.1562H27.5625C29.6887 37.1562 31.5 35.1935 31.5 32.772V15.375C31.5 15.0352 31.3815 14.7093 31.1705 14.469C30.9595 14.2287 30.6734 14.0938 30.375 14.0938H5.625Z" stroke="white" stroke-width="3" stroke-linecap="round" stroke-linejoin="round"/>
</svg>
