<svg width="48" height="48" viewBox="0 0 48 48" fill="none" xmlns="http://www.w3.org/2000/svg">
<path d="M42.8157 22.7128L40.3707 22.3191C40.2128 22.2925 40.0676 22.2161 39.9563 22.1011C39.8449 21.986 39.7733 21.8384 39.7519 21.6797C39.7051 21.3797 39.6582 21.0788 39.5926 20.7881C39.5608 20.6321 39.5791 20.47 39.6447 20.325C39.7104 20.1799 39.82 20.0592 39.9582 19.98L42.1229 18.7781C42.2867 18.6944 42.4143 18.5536 42.4817 18.3823C42.549 18.211 42.5514 18.0211 42.4885 17.8481L42.1135 16.8169C42.0508 16.6435 41.9259 16.4995 41.7631 16.4129C41.6003 16.3263 41.4111 16.3032 41.2322 16.3481L38.8051 16.8169C38.6473 16.8474 38.4838 16.8265 38.3388 16.7571C38.1938 16.6877 38.075 16.5736 37.9997 16.4316C37.8591 16.1691 37.7091 15.9063 37.5497 15.6431C37.4656 15.5063 37.4267 15.3465 37.4384 15.1863C37.4502 15.0261 37.5121 14.8737 37.6154 14.7506L39.2363 12.8813C39.362 12.7475 39.4343 12.5723 39.4395 12.3888C39.4447 12.2053 39.3824 12.0263 39.2644 11.8856L38.5622 11.0419C38.4452 10.9 38.2795 10.8068 38.0974 10.7807C37.9154 10.7545 37.7301 10.7971 37.5779 10.9003L35.4507 12.1781C35.3139 12.2592 35.155 12.2947 34.9968 12.2795C34.8385 12.2643 34.6892 12.1993 34.5704 12.0938C34.3454 11.8959 34.111 11.6991 33.8766 11.5106C33.752 11.4116 33.662 11.2754 33.6199 11.1219C33.5778 10.9683 33.5856 10.8054 33.6422 10.6566L34.5235 8.33626C34.5985 8.16792 34.6089 7.97787 34.5527 7.80236C34.4965 7.62685 34.3776 7.47817 34.2188 7.3847L33.2626 6.83064C33.103 6.74001 32.9157 6.71105 32.7362 6.74923C32.5567 6.78742 32.3974 6.89009 32.2885 7.03782L30.7285 8.99157C30.6414 9.11453 30.5153 9.20454 30.3707 9.24707C30.2262 9.28959 30.0715 9.28215 29.9316 9.22595C29.9316 9.22595 29.4066 9.01032 29.0129 8.87814C28.8618 8.82781 28.7308 8.73073 28.6386 8.60095C28.5464 8.47118 28.4979 8.31543 28.5001 8.15626L28.5376 5.67657C28.5486 5.49214 28.4918 5.31004 28.3778 5.16462C28.2638 5.0192 28.1005 4.92052 27.9188 4.8872L26.8322 4.6997C26.6504 4.6682 26.4632 4.70428 26.3061 4.80115C26.149 4.89801 26.0327 5.04899 25.9791 5.22564L25.1729 7.57407C25.1211 7.72545 25.0224 7.85631 24.891 7.94756C24.7596 8.03881 24.6025 8.08566 24.4426 8.08126H23.5238C23.3641 8.08463 23.2075 8.03738 23.0763 7.94627C22.9451 7.85517 22.8461 7.72488 22.7935 7.57407L21.9872 5.22564C21.9337 5.04899 21.8174 4.89801 21.6603 4.80115C21.5031 4.70428 21.316 4.6682 21.1341 4.6997L20.0476 4.8872C19.8658 4.92052 19.7026 5.0192 19.5886 5.16462C19.4746 5.31004 19.4178 5.49214 19.4288 5.67657L19.4663 8.15626C19.4686 8.31583 19.4199 8.47196 19.3273 8.60195C19.2348 8.73194 19.1031 8.82902 18.9516 8.87907C18.736 8.96345 18.2672 9.14251 18.0422 9.22689C17.7797 9.32064 17.4704 9.24564 17.2172 8.95407L15.6694 7.0472C15.56 6.90009 15.4005 6.79816 15.221 6.76068C15.0415 6.72319 14.8545 6.75275 14.6954 6.84376L13.7391 7.39782C13.5799 7.48952 13.4602 7.63686 13.4031 7.81149C13.346 7.98612 13.3555 8.1757 13.4297 8.34376L14.311 10.6641C14.3668 10.813 14.3741 10.9757 14.332 11.129C14.29 11.2824 14.2006 11.4185 14.0766 11.5181C13.8422 11.7056 13.6079 11.9034 13.3829 12.1013C13.264 12.2068 13.1147 12.2718 12.9565 12.287C12.7982 12.3022 12.6393 12.2667 12.5026 12.1856L10.4063 10.8881C10.2533 10.7874 10.0686 10.7462 9.88728 10.7723C9.70593 10.7984 9.5404 10.8899 9.42193 11.0297L8.71974 11.8734C8.60178 12.0141 8.53949 12.1931 8.54467 12.3766C8.54985 12.5601 8.62215 12.7353 8.74787 12.8691L10.3688 14.7384C10.4742 14.8604 10.5375 15.0131 10.5493 15.1738C10.5611 15.3346 10.5209 15.4949 10.4344 15.6309C10.2751 15.8809 10.1251 16.1438 9.98443 16.4194C9.90797 16.5603 9.78892 16.6735 9.64428 16.7427C9.49964 16.8119 9.33683 16.8336 9.17912 16.8047L6.75193 16.3359C6.57311 16.2923 6.3845 16.316 6.222 16.4024C6.0595 16.4889 5.93446 16.632 5.87068 16.8047L5.49568 17.8359C5.43275 18.0089 5.43519 18.1989 5.50252 18.3701C5.56986 18.5414 5.69745 18.6822 5.86131 18.7659L8.02318 19.9688C8.16276 20.0464 8.27366 20.1669 8.3395 20.3124C8.40534 20.4579 8.42263 20.6208 8.38881 20.7769C8.33256 21.0769 8.27631 21.3684 8.22943 21.6684C8.20693 21.8267 8.13496 21.9737 8.02382 22.0886C7.91269 22.2034 7.76808 22.2801 7.61068 22.3078L5.16568 22.7016C4.98373 22.724 4.81606 22.8116 4.69369 22.9481C4.57132 23.0846 4.50253 23.2608 4.50006 23.4441V24.5428C4.49778 24.7275 4.56493 24.9063 4.6882 25.0438C4.81147 25.1813 4.98187 25.2675 5.16568 25.2853L7.61068 25.6791C7.76855 25.7057 7.91378 25.7821 8.02511 25.8971C8.13644 26.0121 8.20804 26.1598 8.22943 26.3184C8.27631 26.6184 8.32318 26.9194 8.38881 27.21C8.42053 27.366 8.40228 27.5281 8.33664 27.6732C8.27101 27.8183 8.16133 27.939 8.02318 28.0181L5.85849 29.2219C5.69464 29.3057 5.56704 29.4464 5.49971 29.6177C5.43237 29.789 5.42994 29.9789 5.49287 30.1519L5.86787 31.1831C5.9306 31.3566 6.05547 31.5005 6.21828 31.5871C6.38109 31.6737 6.57026 31.6968 6.74912 31.6519L9.17631 31.1831C9.33411 31.1526 9.49755 31.1736 9.64254 31.2429C9.78752 31.3123 9.90639 31.4264 9.98162 31.5684C10.1222 31.8309 10.2722 32.0938 10.4316 32.3569C10.5158 32.4937 10.5547 32.6535 10.5429 32.8137C10.5311 32.9739 10.4692 33.1263 10.366 33.2494L8.74506 35.1206C8.61934 35.2544 8.54704 35.4296 8.54186 35.6131C8.53668 35.7966 8.59897 35.9756 8.71693 36.1163L9.41912 36.96C9.53613 37.1019 9.70187 37.1951 9.88392 37.2212C10.066 37.2474 10.2512 37.2047 10.4035 37.1016L12.5307 35.8238C12.6674 35.7427 12.8264 35.7072 12.9846 35.7224C13.1428 35.7376 13.2921 35.8026 13.411 35.9081C13.636 36.1059 13.8704 36.3028 14.1047 36.4913C14.2294 36.5903 14.3193 36.7265 14.3615 36.88C14.4036 37.0336 14.3958 37.1965 14.3391 37.3453L13.4579 39.6656C13.3841 39.8342 13.3748 40.024 13.4319 40.1989C13.4889 40.3739 13.6083 40.5217 13.7672 40.6144L14.7235 41.1684C14.8831 41.2591 15.0704 41.288 15.2499 41.2499C15.4294 41.2117 15.5887 41.109 15.6976 40.9613L17.2716 39.0263C17.4685 38.7825 17.7872 38.6794 18.0404 38.7825C18.3591 38.9138 18.5747 38.9888 18.9685 39.1209C19.12 39.171 19.2516 39.2681 19.3442 39.3981C19.4368 39.5281 19.4854 39.6842 19.4832 39.8438L19.4457 42.3235C19.4346 42.5079 19.4915 42.69 19.6055 42.8354C19.7194 42.9808 19.8827 43.0795 20.0644 43.1128L21.151 43.3003C21.3329 43.3318 21.52 43.2957 21.6771 43.1989C21.8343 43.102 21.9506 42.951 22.0041 42.7744L22.8104 40.4306C22.8621 40.2793 22.9609 40.1484 23.0923 40.0571C23.2237 39.9659 23.3808 39.9191 23.5407 39.9234H24.4594C24.6191 39.9201 24.7758 39.9673 24.907 40.0584C25.0381 40.1495 25.1371 40.2798 25.1897 40.4306L25.996 42.7744C26.0496 42.951 26.1658 43.102 26.323 43.1989C26.4801 43.2957 26.6672 43.3318 26.8491 43.3003L27.9357 43.1128C28.1174 43.0795 28.2807 42.9808 28.3947 42.8354C28.5086 42.69 28.5655 42.5079 28.5544 42.3235L28.5169 39.8438C28.5147 39.6842 28.5634 39.5281 28.6559 39.3981C28.7485 39.2681 28.8801 39.171 29.0316 39.1209C29.4254 38.9888 29.6879 38.8856 29.9316 38.7919C30.1754 38.6981 30.4754 38.6981 30.7097 38.9888L32.3035 40.9519C32.4129 41.1001 32.5731 41.2029 32.7534 41.2406C32.9338 41.2782 33.1217 41.2482 33.2813 41.1563L34.2376 40.6022C34.3976 40.5106 34.5179 40.3628 34.5751 40.1874C34.6323 40.0121 34.6222 39.8218 34.5469 39.6534L33.6657 37.3331C33.61 37.1841 33.6027 37.0212 33.6447 36.8678C33.6868 36.7143 33.7761 36.578 33.9001 36.4781C34.1344 36.2906 34.3688 36.0938 34.5938 35.896C34.7127 35.7904 34.862 35.7254 35.0202 35.7102C35.1784 35.695 35.3374 35.7305 35.4741 35.8116L37.5938 37.0931C37.7469 37.1938 37.9315 37.2351 38.1128 37.209C38.2942 37.1829 38.4597 37.0913 38.5782 36.9516L39.2804 36.1078C39.3983 35.9672 39.4606 35.7882 39.4554 35.6047C39.4503 35.4212 39.378 35.246 39.2522 35.1122L37.6313 33.2428C37.5259 33.1209 37.4626 32.9682 37.4508 32.8074C37.439 32.6467 37.4793 32.4864 37.5657 32.3503C37.7251 32.0972 37.8751 31.8344 38.0157 31.5619C38.0921 31.421 38.2112 31.3078 38.3558 31.2386C38.5005 31.1694 38.6633 31.1477 38.821 31.1766L41.2482 31.6453C41.427 31.6889 41.6156 31.6653 41.7781 31.5788C41.9406 31.4924 42.0657 31.3492 42.1294 31.1766L42.5044 30.1453C42.5674 29.9724 42.5649 29.7824 42.4976 29.6111C42.4303 29.4399 42.3027 29.2991 42.1388 29.2153L39.9741 28.0134C39.8345 27.9358 39.7236 27.8153 39.6578 27.6698C39.592 27.5243 39.5747 27.3614 39.6085 27.2053C39.6647 26.9053 39.721 26.6138 39.7679 26.3138C39.7904 26.1555 39.8623 26.0085 39.9735 25.8937C40.0846 25.7788 40.2292 25.7021 40.3866 25.6744L42.8316 25.2806C43.0136 25.2582 43.1812 25.1707 43.3036 25.0342C43.426 24.8977 43.4948 24.7214 43.4972 24.5381V23.4375C43.487 23.2558 43.4131 23.0836 43.2884 22.951C43.1638 22.8185 42.9964 22.7342 42.8157 22.7128V22.7128ZM24.0001 10.5C26.9944 10.4987 29.904 11.4943 32.27 13.3296C34.6359 15.1649 36.3237 17.7356 37.0669 20.6363C37.1222 20.8575 37.1264 21.0884 37.079 21.3114C37.0317 21.5344 36.9341 21.7438 36.7938 21.9234C36.6534 22.1031 36.4739 22.2484 36.269 22.3483C36.064 22.4482 35.839 22.5001 35.611 22.5H25.7447C25.4798 22.5 25.2195 22.4299 24.9904 22.2967C24.7614 22.1634 24.5717 21.9719 24.4407 21.7416L19.5563 13.1438C19.4426 12.9439 19.3763 12.7205 19.3627 12.4909C19.349 12.2614 19.3884 12.0317 19.4776 11.8198C19.5669 11.6078 19.7037 11.4192 19.8774 11.2686C20.0512 11.1179 20.2573 11.0093 20.4797 10.9509C21.6288 10.6495 22.8121 10.4979 24.0001 10.5V10.5ZM10.5001 24C10.4984 22.1924 10.8597 20.4029 11.5627 18.7375C12.2656 17.0722 13.2958 15.565 14.5922 14.3053C14.7559 14.1433 14.9548 14.0211 15.1733 13.9483C15.3918 13.8754 15.6242 13.8539 15.8524 13.8854C16.0806 13.9168 16.2985 14.0004 16.4892 14.1297C16.6798 14.2589 16.8382 14.4303 16.9519 14.6306L21.8494 23.25C21.9788 23.4766 22.0469 23.733 22.0469 23.9939C22.0469 24.2548 21.9788 24.5112 21.8494 24.7378L16.9116 33.3347C16.797 33.5344 16.6379 33.7051 16.4467 33.8334C16.2555 33.9618 16.0373 34.0444 15.8091 34.0749C15.5808 34.1053 15.3486 34.0828 15.1304 34.0091C14.9122 33.9354 14.714 33.8124 14.551 33.6497C13.2672 32.392 12.2476 30.8906 11.552 29.2336C10.8563 27.5765 10.4987 25.7972 10.5001 24V24ZM24.0001 37.5C22.7914 37.5031 21.5876 37.3471 20.4197 37.0359C20.1973 36.9768 19.9915 36.8673 19.8182 36.716C19.6449 36.5646 19.5087 36.3753 19.4203 36.1629C19.3318 35.9504 19.2934 35.7205 19.3081 35.4908C19.3227 35.2611 19.39 35.0379 19.5047 34.8384L24.4341 26.2556C24.566 26.0273 24.7557 25.8377 24.9841 25.706C25.2126 25.5744 25.4717 25.5052 25.7354 25.5056H35.6157C35.8436 25.5057 36.0685 25.5576 36.2734 25.6576C36.4782 25.7576 36.6576 25.9029 36.7978 26.0826C36.9381 26.2622 37.0355 26.4715 37.0828 26.6945C37.1301 26.9174 37.126 27.1483 37.0707 27.3694C36.3259 30.2695 34.6371 32.8392 32.2705 34.6734C29.904 36.5077 26.9942 37.5021 24.0001 37.5V37.5Z" fill="white"/>
</svg>
